<svg xmlns="http://www.w3.org/2000/svg" width="1600" height="900" viewBox="0 0 1600 900">
  <rect width="1600" height="900" fill="#1d1f22"/>
  <g stroke="#31353a" stroke-width="2.5" fill="none" stroke-linecap="round" stroke-linejoin="round" opacity="0.9">
    <circle cx="120" cy="120" r="34"/><circle cx="120" cy="120" r="8"/>
    <rect x="250" y="85" width="82" height="70" rx="8"/><circle cx="272" cy="120" r="8"/><circle cx="310" cy="120" r="8"/>
    <path d="M430 85l18 70 34-36"/><circle cx="470" cy="125" r="26"/>
    <path d="M620 86c20 0 36 16 36 36v18c0 20-16 36-36 36s-36-16-36-36v-18c0-20 16-36 36-36z"/><path d="M620 176v28"/><path d="M596 208h48"/>
    <path d="M760 95v72"/><path d="M786 112c18-8 34 7 34 24s-14 31-34 23z"/>
    <rect x="900" y="86" width="98" height="64" rx="8"/><path d="M922 118h54"/><path d="M922 132h54"/>
    <path d="M1088 102l70 0"/><path d="M1123 68v68"/><circle cx="1123" cy="134" r="24"/>
    <path d="M1270 90l38 74"/><path d="M1308 90l-38 74"/><path d="M1260 174h58"/>

    <circle cx="210" cy="310" r="34"/><circle cx="210" cy="310" r="8"/>
    <rect x="370" y="278" width="82" height="64" rx="8"/><path d="M392 298h38"/><path d="M392 320h38"/><circle cx="438" cy="311" r="7"/>
    <path d="M530 278c26 0 46 20 46 46s-20 46-46 46-46-20-46-46 20-46 46-46z"/><circle cx="530" cy="324" r="10"/>
    <path d="M686 278v92"/><path d="M716 300c18-10 34 6 34 24 0 17-14 34-34 24z"/>
    <path d="M848 280c18 0 32 14 32 32v28c0 18-14 32-32 32s-32-14-32-32v-28c0-18 14-32 32-32z"/><path d="M848 372v24"/><path d="M828 396h40"/>
    <rect x="976" y="284" width="96" height="58" rx="8"/><circle cx="1000" cy="313" r="8"/><circle cx="1038" cy="313" r="8"/>
    <path d="M1168 282l22 84 34-44"/><circle cx="1212" cy="322" r="24"/>
    <path d="M1320 278h58"/><path d="M1349 246v64"/><circle cx="1349" cy="334" r="20"/>

    <circle cx="130" cy="520" r="34"/><circle cx="130" cy="520" r="8"/>
    <path d="M270 490h54"/><path d="M297 458v64"/><circle cx="297" cy="546" r="22"/>
    <rect x="418" y="486" width="96" height="62" rx="8"/><path d="M440 508h52"/><path d="M440 526h52"/>
    <path d="M598 486v80"/><path d="M626 506c16-10 32 6 32 22s-14 30-32 22z"/>
    <path d="M752 486c24 0 42 18 42 42s-18 42-42 42-42-18-42-42 18-42 42-42z"/><circle cx="752" cy="528" r="10"/>
    <path d="M892 492c16 0 30 14 30 30v26c0 16-14 30-30 30s-30-14-30-30v-26c0-16 14-30 30-30z"/><path d="M892 578v22"/><path d="M874 600h36"/>
    <path d="M1038 488l34 68"/><path d="M1072 488l-34 68"/><path d="M1028 566h54"/>
    <rect x="1188" y="490" width="84" height="58" rx="8"/><circle cx="1212" cy="519" r="7"/><circle cx="1248" cy="519" r="7"/>

    <circle cx="220" cy="720" r="34"/><circle cx="220" cy="720" r="8"/>
    <path d="M380 690v78"/><path d="M408 708c16-10 30 5 30 20 0 16-14 31-30 21z"/>
    <rect x="520" y="688" width="98" height="62" rx="8"/><path d="M542 710h54"/><path d="M542 728h54"/>
    <path d="M712 688c24 0 42 18 42 42s-18 42-42 42-42-18-42-42 18-42 42-42z"/><circle cx="712" cy="730" r="10"/>
    <path d="M870 692c18 0 32 14 32 32v24c0 18-14 32-32 32s-32-14-32-32v-24c0-18 14-32 32-32z"/><path d="M870 780v22"/><path d="M850 802h40"/>
    <path d="M1018 692h60"/><path d="M1048 662v60"/><circle cx="1048" cy="744" r="20"/>
    <path d="M1180 688l20 78 34-40"/><circle cx="1222" cy="728" r="24"/>
  </g>
</svg>
