<svg xmlns="http://www.w3.org/2000/svg" width="1600" height="900" viewBox="0 0 1600 900">
  <rect width="1600" height="900" fill="#f7f3ea"/>
  <g stroke="#d8c6af" stroke-width="2.5" fill="none" stroke-linecap="round" stroke-linejoin="round" opacity="0.9">
    <circle cx="120" cy="120" r="34"/><circle cx="120" cy="120" r="8"/>
    <rect x="250" y="85" width="82" height="70" rx="8"/><circle cx="272" cy="120" r="8"/><circle cx="310" cy="120" r="8"/>
    <path d="M430 85l18 70 34-36"/><circle cx="470" cy="125" r="26"/>
    <path d="M620 86c20 0 36 16 36 36v18c0 20-16 36-36 36s-36-16-36-36v-18c0-20 16-36 36-36z"/><path d="M620 176v28"/><path d="M596 208h48"/>
    <path d="M760 95v72"/><path d="M786 112c18-8 34 7 34 24s-14 31-34 23z"/>
    <rect x="900" y="86" width="98" height="64" rx="8"/><path d="M922 118h54"/><path d="M922 132h54"/>
    <path d="M1088 102l70 0"/><path d="M1123 68v68"/><circle cx="1123" cy="134" r="24"/>
    <path d="M1270 90l38 74"/><path d="M1308 90l-38 74"/><path d="M1260 174h58"/>

    <circle cx="210" cy="310" r="34"/><circle cx="210" cy="310" r="8"/>
    <rect x="370" y="278" width="82" height="64" rx="8"/><path d="M392 298h38"/><path d="M392 320h38"/><circle cx="438" cy="311" r="7"/>
    <path d="M530 278c26 0 46 20 46 46s-20 46-46 46-46-20-46-46 20-46 46-46z"/><circle cx="530" cy="324" r="10"/>
    <path d="M686 278v92"/><path d="M716 300c18-10 34 6 34 24 0 17-14 34-34 24z"/>
    <path d="M848 280c18 0 32 14 32 32v28c0 18-14 32-32 32s-32-14-32-32v-28c0-18 14-32 32-32z"/><path d="M848 372v24"/><path d="M828 396h40"/>
    <rect x="976" y="284" width="96" height="58" rx="8"/><circle cx="1000" cy="313" r="8"/><circle cx="1038" cy="313" r="8"/>
    <path d="M1168 282l22 84 34-44"/><circle cx="1212" cy="322" r="24"/>
    <path d="M1320 278h58"/><path d="M1349 246v64"/><circle cx="1349" cy="334" r="20"/>
  </g>
</svg>
